<?xml version="1.0" encoding="utf-8"?>
<!-- Generator: Adobe Illustrator 16.0.2, SVG Export Plug-In . SVG Version: 6.00 Build 0)  -->
<!DOCTYPE svg PUBLIC "-//W3C//DTD SVG 1.1//EN" "http://www.w3.org/Graphics/SVG/1.1/DTD/svg11.dtd">
<svg version="1.1" id="Layer_1" xmlns="http://www.w3.org/2000/svg" xmlns:xlink="http://www.w3.org/1999/xlink" x="0px" y="0px"
	 width="525.393px" height="145.752px" viewBox="0 0 525.393 145.752" enable-background="new 0 0 525.393 145.752"
	 xml:space="preserve">
<g>
	<path fill="#C6C6C6" d="M510.27,125.36c0,0.78-0.638,1.418-1.417,1.418h-22.584c-0.779,0-1.417-0.638-1.417-1.418V45.735
		c0-0.78,0.638-1.418,1.417-1.418h22.584c0.779,0,1.417,0.638,1.417,1.418V125.36z"/>
</g>
<g>
	<path fill="#C6C6C6" d="M488.672,102.154c0,0.78-0.638,1.417-1.417,1.417h-22.584c-0.779,0-1.417-0.637-1.417-1.417V22.528
		c0-0.78,0.514-1.795,1.142-2.257l10.647-7.836c0.628-0.462,1.648-0.453,2.269,0.019l10.233,7.798
		c0.619,0.472,1.127,1.497,1.127,2.276V102.154z"/>
</g>
<g>
	<path fill="#C6C6C6" d="M146.77,125.672c0,0.779-0.638,1.417-1.417,1.417H17.936c-0.78,0-1.417-0.638-1.417-1.417V77.174
		c0-0.779,0.638-1.417,1.417-1.417h127.417c0.78,0,1.417,0.638,1.417,1.417V125.672z"/>
</g>
<g>
	<path fill="#C6C6C6" d="M41.936,125.36c0,0.78-0.638,1.418-1.417,1.418H17.936c-0.78,0-1.417-0.638-1.417-1.418V38.645
		c0-0.78,0.638-1.417,1.417-1.417h22.583c0.78,0,1.417,0.638,1.417,1.417V125.36z"/>
</g>
<g>
	<path fill="#C6C6C6" d="M85.978,119.098c0,0.779-0.638,1.417-1.417,1.417H61.977c-0.78,0-1.417-0.638-1.417-1.417V1.417
		C60.56,0.638,61.197,0,61.977,0H84.56c0.78,0,1.417,0.638,1.417,1.417V119.098z"/>
</g>
<g>
	<path fill="#C6C6C6" d="M105.195,134.79c0,0.779-0.638,1.418-1.417,1.418H81.194c-0.78,0-1.417-0.639-1.417-1.418V34.96
		c0-0.78,0.638-1.417,1.417-1.417h22.583c0.78,0,1.417,0.638,1.417,1.417V134.79z"/>
</g>
<g>
	<path fill="#3C3C3B" d="M525.308,63.246c0-0.78-0.638-1.417-1.417-1.417h-44.248c-0.779,0-1.417-0.639-1.417-1.418v-31.32
		c0-0.78-0.638-1.417-1.417-1.417h-44.248c-0.779,0-1.417,0.638-1.417,1.417v64.772c0,0.78-0.638,1.417-1.417,1.417h-2.751
		c-0.779,0-1.417-0.637-1.417-1.417V46.229c0-0.78-0.638-1.417-1.417-1.417H406.81c-0.779,0-1.417,0.638-1.417,1.417v86.425
		c0,0.78,0.117,1.417,0.262,1.417c0.144,0,0.261,0.031,0.261,0.068s0.638,0.068,1.417,0.068h67.789c0.779,0,1.417-0.13,1.417-0.287
		c0-0.158,0.638-0.287,1.417-0.287h45.936c0.779,0,1.417-0.639,1.417-1.418V63.246z"/>
</g>
<rect x="500.542" y="80.383" fill="#FFFFFF" width="5.5" height="5.5"/>
<rect x="508.749" y="80.383" fill="#FFFFFF" width="5.5" height="5.5"/>
<rect x="508.749" y="88.299" fill="#FFFFFF" width="5.5" height="5.5"/>
<g>
	<path fill="#3C3C3B" d="M116.673,85.893c-0.78,0-1.417-0.637-1.417-1.417V41.383c0-0.78-0.638-1.417-1.417-1.417H82.526
		c-0.78,0-1.417,0.638-1.417,1.417v43.093c0,0.78-0.638,1.417-1.417,1.417h-4.833c-0.78,0-1.417-0.637-1.417-1.417V22.383
		c0-0.78-0.638-1.417-1.417-1.417H40.712c-0.78,0-1.417,0.638-1.417,1.417v62.093c0,0.78-0.638,1.417-1.417,1.417h-2.313
		c-0.78,0-1.417-0.637-1.417-1.417V45.883c0-0.78-0.638-1.417-1.417-1.417H1.417C0.638,44.466,0,45.104,0,45.883v84.521
		c0,0.78,0,1.417,0,1.417c0,0,0,0.507,0,1.125c0,0.619,0.638,1.125,1.417,1.125h151.558c0.78,0,1.417-0.637,1.417-1.417V87.311
		c0-0.779-0.638-1.418-1.417-1.418H116.673z"/>
</g>
<line fill="none" stroke="#3C3C3B" stroke-width="4" stroke-miterlimit="10" x1="0" y1="133.182" x2="525.393" y2="133.182"/>
<g>
	<path fill-rule="evenodd" clip-rule="evenodd" fill="#FFFFFF" d="M135.589,94.327c-0.78,0-1.417-0.639-1.417-1.418V65.72
		c0-0.78-0.638-1.417-1.417-1.417h-12.803c-0.78,0-1.417,0.637-1.417,1.417v27.188c0,0.779-0.638,1.418-1.417,1.418h-2.121
		c-0.78,0-1.417-0.639-1.417-1.418V73.72c0-0.78-0.638-1.417-1.417-1.417H99.303c-0.78,0-1.417,0.637-1.417,1.417v19.188
		c0,0.779-0.638,1.418-1.417,1.418H21.95c-0.78,0-1.417,0.637-1.417,1.417v45.842c0,0.78,0.638,1.417,1.417,1.417h119.476
		c0.78,0,1.417-0.637,1.417-1.417V95.744c0-0.78-0.638-1.417-1.417-1.417H135.589z"/>
	<path fill="none" stroke="#3C3C3B" stroke-width="1.5" stroke-miterlimit="10" d="M135.589,94.327c-0.78,0-1.417-0.639-1.417-1.418
		V65.72c0-0.78-0.638-1.417-1.417-1.417h-12.803c-0.78,0-1.417,0.637-1.417,1.417v27.188c0,0.779-0.638,1.418-1.417,1.418h-2.121
		c-0.78,0-1.417-0.639-1.417-1.418V73.72c0-0.78-0.638-1.417-1.417-1.417H99.303c-0.78,0-1.417,0.637-1.417,1.417v19.188
		c0,0.779-0.638,1.418-1.417,1.418H21.95c-0.78,0-1.417,0.637-1.417,1.417v45.842c0,0.78,0.638,1.417,1.417,1.417h119.476
		c0.78,0,1.417-0.637,1.417-1.417V95.744c0-0.78-0.638-1.417-1.417-1.417H135.589z"/>
</g>
<rect x="25.924" y="112.43" fill="#FFFFFF" stroke="#3C3C3B" stroke-miterlimit="10" width="111.527" height="30.365"/>
<path fill="#3C3C3B" d="M90.637,132.256H35.982c-2.182,0-3.951,1.77-3.951,3.951s1.769,3.951,3.951,3.951h54.655
	c2.182,0,3.951-1.77,3.951-3.951S92.819,132.256,90.637,132.256z"/>
<path fill="#3C3C3B" d="M127.143,132.256h-26.01c-2.183,0-3.951,1.77-3.951,3.951s1.769,3.951,3.951,3.951h26.01
	c2.182,0,3.951-1.77,3.951-3.951S129.325,132.256,127.143,132.256z"/>
<circle fill="#FFFFFF" stroke="#3C3C3B" stroke-miterlimit="10" cx="35.721" cy="136.208" r="2.574"/>
<circle fill="#FFFFFF" stroke="#3C3C3B" stroke-miterlimit="10" cx="89.912" cy="136.208" r="2.574"/>
<circle fill="#FFFFFF" stroke="#3C3C3B" stroke-miterlimit="10" cx="101.459" cy="136.208" r="2.573"/>
<circle fill="#FFFFFF" stroke="#3C3C3B" stroke-miterlimit="10" cx="126.966" cy="136.208" r="2.573"/>
<text transform="matrix(1 0 0 1 62.8262 109.6528)" fill="#3C3C3B" font-family="'Meiryo'" font-size="8">FACTORY</text>
<g>
	<path fill="#FFFFFF" d="M503.315,87.038c0-0.779-0.594-1.65-1.319-1.936l-31.24-12.281c-0.726-0.285-1.913-0.285-2.639,0
		l-31.238,12.281c-0.726,0.285-1.319,1.156-1.319,1.936v56.548c0,0.78,0.638,1.417,1.417,1.417h64.922
		c0.779,0,1.417-0.637,1.417-1.417V87.038z"/>
	<path fill="none" stroke="#3C3C3B" stroke-width="1.5" stroke-miterlimit="10" d="M503.315,87.038c0-0.779-0.594-1.65-1.319-1.936
		l-31.24-12.281c-0.726-0.285-1.913-0.285-2.639,0l-31.238,12.281c-0.726,0.285-1.319,1.156-1.319,1.936v56.548
		c0,0.78,0.638,1.417,1.417,1.417h64.922c0.779,0,1.417-0.637,1.417-1.417V87.038z"/>
</g>
<rect x="441.227" y="119.458" fill="#FFFFFF" stroke="#3C3C3B" stroke-miterlimit="10" width="56.333" height="20.332"/>
<rect x="441.227" y="96.965" fill="#FFFFFF" stroke="#3C3C3B" stroke-miterlimit="10" width="56.333" height="20.332"/>
<g>
	<text transform="matrix(1 0 0 1 443.7261 94.3267)" fill="#3C3C3B" font-family="'Meiryo'" font-size="8">WAREHOUSE</text>
</g>
<rect x="433.768" y="30.132" fill="#FFFFFF" width="5.5" height="5.5"/>
<rect x="441.975" y="30.132" fill="#FFFFFF" width="5.5" height="5.5"/>
<rect x="433.768" y="38.049" fill="#FFFFFF" width="5.5" height="5.5"/>
<rect x="441.975" y="38.049" fill="#FFFFFF" width="5.5" height="5.5"/>
<rect x="41.936" y="23.424" fill="#FFFFFF" width="5.5" height="5.5"/>
<rect x="50.143" y="23.424" fill="#FFFFFF" width="5.5" height="5.5"/>
<rect x="41.936" y="31.341" fill="#FFFFFF" width="5.5" height="5.5"/>
<rect x="50.143" y="31.341" fill="#FFFFFF" width="5.5" height="5.5"/>
<rect x="50.143" y="38.924" fill="#FFFFFF" width="5.5" height="5.5"/>
<rect x="50.143" y="46.84" fill="#FFFFFF" width="5.5" height="5.5"/>
<rect x="57.81" y="46.84" fill="#FFFFFF" width="5.5" height="5.5"/>
<rect x="57.81" y="62.34" fill="#FFFFFF" width="5.5" height="5.5"/>
<rect x="57.81" y="70.257" fill="#FFFFFF" width="5.5" height="5.5"/>
<rect x="83.518" y="42.383" fill="#FFFFFF" width="5.5" height="5.5"/>
<rect x="83.518" y="50.299" fill="#FFFFFF" width="5.5" height="5.5"/>
<rect x="508.749" y="64.549" fill="#FFFFFF" width="5.5" height="5.5"/>
<rect x="516.956" y="72.465" fill="#FFFFFF" width="5.5" height="5.5"/>
<rect x="449.547" y="45.632" fill="#FFFFFF" width="5.5" height="5.5"/>
<rect x="457.754" y="53.382" fill="#FFFFFF" width="5.5" height="5.5"/>
<rect x="449.547" y="38.049" fill="#FFFFFF" width="5.5" height="5.5"/>
<rect x="151.786" y="121.299" fill-rule="evenodd" clip-rule="evenodd" fill="#3C3C3B" width="263.107" height="10.957"/>
<g>
	<g>
		
			<line fill="none" stroke="#FFFFFF" stroke-width="0.5" stroke-miterlimit="10" x1="154.559" y1="128.612" x2="159.559" y2="128.612"/>
		
			<line fill="none" stroke="#FFFFFF" stroke-width="0.5" stroke-miterlimit="10" stroke-dasharray="9.64,9.64" x1="169.199" y1="128.612" x2="395.739" y2="128.612"/>
		
			<line fill="none" stroke="#FFFFFF" stroke-width="0.5" stroke-miterlimit="10" x1="400.559" y1="128.612" x2="405.559" y2="128.612"/>
	</g>
</g>
<rect x="3.143" y="46.84" fill="#FFFFFF" width="5.5" height="5.5"/>
<rect x="3.143" y="54.757" fill="#FFFFFF" width="5.5" height="5.5"/>
<rect x="11.018" y="62.34" fill="#FFFFFF" width="5.5" height="5.5"/>
<path fill-rule="evenodd" clip-rule="evenodd" fill="#3C3C3B" d="M169.146,45.641c0-4.658-3.777-8.434-8.436-8.434
	c-0.549,0-1.085,0.057-1.605,0.157c-1.533-2.116-4.017-3.498-6.83-3.498c-3.782,0-6.981,2.489-8.052,5.917
	c-0.636-0.153-1.296-0.243-1.979-0.243c-3.749,0-6.923,2.448-8.021,5.831c-0.692-0.268-1.442-0.42-2.229-0.42
	c-3.416,0-6.185,2.769-6.185,6.185c0,0.366,0.038,0.723,0.099,1.07c-0.92,0.796-1.515,1.958-1.515,3.27
	c0,2.397,1.943,4.34,4.339,4.34c1.75,0,3.248-1.041,3.935-2.531c1.834-0.199,3.426-1.198,4.422-2.643
	c1.426,1.105,3.211,1.77,5.156,1.77c1.603,0,3.095-0.455,4.371-1.23c1.488,2.393,4.134,3.991,7.16,3.991
	c3.488,0,6.481-2.116,7.766-5.136C165.81,53.618,169.146,50.021,169.146,45.641z"/>
</svg>
