<?xml version="1.0" encoding="utf-8"?>
<!-- Generator: Adobe Illustrator 16.0.2, SVG Export Plug-In . SVG Version: 6.00 Build 0)  -->
<!DOCTYPE svg PUBLIC "-//W3C//DTD SVG 1.1//EN" "http://www.w3.org/Graphics/SVG/1.1/DTD/svg11.dtd">
<svg version="1.1" id="Layer_1" xmlns="http://www.w3.org/2000/svg" xmlns:xlink="http://www.w3.org/1999/xlink" x="0px" y="0px"
	 width="63.21px" height="31.816px" viewBox="0 0 63.21 31.816" enable-background="new 0 0 63.21 31.816" xml:space="preserve">
<path fill-rule="evenodd" clip-rule="evenodd" fill="#3C3C3B" d="M59.15,16.521v-0.008c-32.67,0-32.672,0-32.672,0
	c0-5.896,0-10.067,0-13.033h-2.172c0,0.009,0,0.011,0,0.011c-3.123,0-3.123,0-3.123,0c0-1.074,0-1.074,0-1.074
	C21.184,1.074,20.097,0,18.738,0C8.011,0,8.011,0,8.011,0C3.258,0,0,7.518,0,14.498c0,11.68,0,11.68,0,11.68
	c0,0.268,0.135,0.538,0.271,0.806c0.271,0.134,0.544,0.269,0.815,0.269c4.346,0,4.346,0,4.346,0
	c0.543,2.551,2.852,4.564,5.566,4.564c2.717,0,5.024-2.014,5.568-4.564c3.53,0,3.53,0,3.53,0c0.543,0,0.95-0.403,1.087-0.939
	c22.133,0,22.133,0,22.133,0c0,2.953,2.58,5.504,5.568,5.504c3.125,0,5.703-2.551,5.703-5.504c6.111,0,6.111,0,6.111,0
	c1.223,0,2.309-1.074,2.309-2.416c0-2.856,0-5.286,0-7.376H59.15z M2.172,13.425c0.136-2.417,0.68-4.833,1.494-6.713h0.136
	c7.876,0,7.876,0,7.876,0c0,6.713,0,6.713,0,6.713C2.172,13.425,2.172,13.425,2.172,13.425z M10.998,29.668
	c-1.9,0-3.53-1.612-3.53-3.49c0-1.881,1.63-3.491,3.53-3.491c1.901,0,3.531,1.61,3.531,3.491
	C14.529,28.056,12.899,29.668,10.998,29.668z M48.885,29.668c-1.9,0-3.395-1.612-3.395-3.49c0-1.881,1.494-3.491,3.395-3.491
	c2.037,0,3.531,1.61,3.531,3.491C52.416,28.056,50.922,29.668,48.885,29.668z"/>
<g>
	<rect x="28.473" fill-rule="evenodd" clip-rule="evenodd" fill="#BE1622" width="34.737" height="14.628"/>
	<g>
		<text transform="matrix(1 0 0 1 38.1064 10.5454)" fill="#FFFFFF" font-family="'Meiryo'" font-size="8">RED</text>
	</g>
</g>
</svg>
