<?xml version="1.0" encoding="utf-8"?>
<!-- Generator: Adobe Illustrator 16.0.2, SVG Export Plug-In . SVG Version: 6.00 Build 0)  -->
<!DOCTYPE svg PUBLIC "-//W3C//DTD SVG 1.1//EN" "http://www.w3.org/Graphics/SVG/1.1/DTD/svg11.dtd">
<svg version="1.1" id="Layer_1" xmlns="http://www.w3.org/2000/svg" xmlns:xlink="http://www.w3.org/1999/xlink" x="0px" y="0px"
	 width="63.008px" height="31.816px" viewBox="0 0 63.008 31.816" enable-background="new 0 0 63.008 31.816" xml:space="preserve">
<path fill-rule="evenodd" clip-rule="evenodd" fill="#3C3C3B" d="M0,16.521c0,2.09,0,4.52,0,7.376c0,1.342,1.086,2.416,2.309,2.416
	c0,0,0,0,6.111,0c0,2.953,2.578,5.504,5.703,5.504c2.988,0,5.568-2.551,5.568-5.504c0,0,0,0,22.133,0
	c0.137,0.536,0.544,0.939,1.087,0.939c0,0,0,0,3.53,0c0.544,2.551,2.852,4.564,5.568,4.564c2.715,0,5.023-2.014,5.566-4.564
	c0,0,0,0,4.346,0c0.271,0,0.544-0.135,0.815-0.269c0.136-0.268,0.271-0.538,0.271-0.806c0,0,0,0,0-11.68
	C63.008,7.518,59.75,0,54.997,0c0,0,0,0-10.728,0c-1.358,0-2.445,1.074-2.445,2.416c0,0,0,0,0,1.074c0,0,0,0-3.123,0
	c0,0,0-0.002,0-0.011h-2.172c0,2.966,0,7.137,0,13.033c0,0-0.002,0-32.672,0v0.008H0z M51.33,13.425c0,0,0,0,0-6.713
	c0,0,0,0,7.876,0h0.136c0.814,1.88,1.358,4.296,1.494,6.713C60.836,13.425,60.836,13.425,51.33,13.425z M48.479,26.178
	c0-1.881,1.63-3.491,3.531-3.491c1.9,0,3.53,1.61,3.53,3.491c0,1.878-1.63,3.49-3.53,3.49
	C50.108,29.668,48.479,28.056,48.479,26.178z M10.592,26.178c0-1.881,1.494-3.491,3.531-3.491c1.9,0,3.395,1.61,3.395,3.491
	c0,1.878-1.494,3.49-3.395,3.49C12.086,29.668,10.592,28.056,10.592,26.178z"/>
<g>
	<rect fill-rule="evenodd" clip-rule="evenodd" fill="#BE1622" width="34.737" height="14.628"/>
	<g>
		<text transform="matrix(1 0 0 1 9.6338 10.5454)" fill="#FFFFFF" font-family="'Meiryo'" font-size="8">RED</text>
	</g>
</g>
</svg>
